  0
SECTION
  2
HEADER
  9
$ACADVER
  1
AC1018
  9
$ACADMAINTVER
 70
     0
  9
$DWGCODEPAGE
  3
ANSI_932
  9
$INSBASE
 10
0.0
 20
0.0
 30
0.0
  9
$EXTMIN
 10
1.000000000000000E+20
 20
1.000000000000000E+20
 30
1.000000000000000E+20
  9
$EXTMAX
 10
-1.000000000000000E+20
 20
-1.000000000000000E+20
 30
-1.000000000000000E+20
  9
$LIMMIN
 10
0.0
 20
0.0
  9
$LIMMAX
 10
12.0
 20
9.0
  9
$ORTHOMODE
 70
     0
  9
$REGENMODE
 70
     1
  9
$FILLMODE
 70
     1
  9
$QTEXTMODE
 70
     0
  9
$MIRRTEXT
 70
     1
  9
$LTSCALE
 40
1.0
  9
$ATTMODE
 70
     1
  9
$TEXTSIZE
 40
0.2
  9
$TRACEWID
 40
0.05
  9
$TEXTSTYLE
  7
Standard
  9
$CLAYER
  8
0
  9
$CELTYPE
  6
ByLayer
  9
$CECOLOR
 62
   256
  9
$CELTSCALE
 40
1.0
  9
$DISPSILH
 70
     0
  9
$DIMSCALE
 40
1.0
  9
$DIMASZ
 40
0.18
  9
$DIMEXO
 40
0.0625
  9
$DIMDLI
 40
0.38
  9
$DIMRND
 40
0.0
  9
$DIMDLE
 40
0.0
  9
$DIMEXE
 40
0.18
  9
$DIMTP
 40
0.0
  9
$DIMTM
 40
0.0
  9
$DIMTXT
 40
0.18
  9
$DIMCEN
 40
0.09
  9
$DIMTSZ
 40
0.0
  9
$DIMTOL
 70
     0
  9
$DIMLIM
 70
     0
  9
$DIMTIH
 70
     1
  9
$DIMTOH
 70
     1
  9
$DIMSE1
 70
     0
  9
$DIMSE2
 70
     0
  9
$DIMTAD
 70
     0
  9
$DIMZIN
 70
     0
  9
$DIMBLK
  1

  9
$DIMASO
 70
     1
  9
$DIMSHO
 70
     1
  9
$DIMPOST
  1

  9
$DIMAPOST
  1

  9
$DIMALT
 70
     0
  9
$DIMALTD
 70
     2
  9
$DIMALTF
 40
25.4
  9
$DIMLFAC
 40
1.0
  9
$DIMTOFL
 70
     0
  9
$DIMTVP
 40
0.0
  9
$DIMTIX
 70
     0
  9
$DIMSOXD
 70
     0
  9
$DIMSAH
 70
     0
  9
$DIMBLK1
  1

  9
$DIMBLK2
  1

  9
$DIMSTYLE
  2
Standard
  9
$DIMCLRD
 70
     0
  9
$DIMCLRE
 70
     0
  9
$DIMCLRT
 70
     0
  9
$DIMTFAC
 40
1.0
  9
$DIMGAP
 40
0.09
  9
$DIMJUST
 70
     0
  9
$DIMSD1
 70
     0
  9
$DIMSD2
 70
     0
  9
$DIMTOLJ
 70
     1
  9
$DIMTZIN
 70
     0
  9
$DIMALTZ
 70
     0
  9
$DIMALTTZ
 70
     0
  9
$DIMUPT
 70
     0
  9
$DIMDEC
 70
     4
  9
$DIMTDEC
 70
     4
  9
$DIMALTU
 70
     2
  9
$DIMALTTD
 70
     2
  9
$DIMTXSTY
  7
Standard
  9
$DIMAUNIT
 70
     0
  9
$DIMADEC
 70
     0
  9
$DIMALTRND
 40
0.0
  9
$DIMAZIN
 70
     0
  9
$DIMDSEP
 70
    46
  9
$DIMATFIT
 70
     3
  9
$DIMFRAC
 70
     0
  9
$DIMLDRBLK
  1

  9
$DIMLUNIT
 70
     2
  9
$DIMLWD
 70
    -2
  9
$DIMLWE
 70
    -2
  9
$DIMTMOVE
 70
     0
  9
$LUNITS
 70
     2
  9
$LUPREC
 70
     4
  9
$SKETCHINC
 40
0.1
  9
$FILLETRAD
 40
0.5
  9
$AUNITS
 70
     0
  9
$AUPREC
 70
     0
  9
$MENU
  1
.
  9
$ELEVATION
 40
0.0
  9
$PELEVATION
 40
0.0
  9
$THICKNESS
 40
0.0
  9
$LIMCHECK
 70
     0
  9
$CHAMFERA
 40
0.5
  9
$CHAMFERB
 40
0.5
  9
$CHAMFERC
 40
1.0
  9
$CHAMFERD
 40
0.0
  9
$SKPOLY
 70
     0
  9
$TDCREATE
 40
2457271.230717592
  9
$TDUCREATE
 40
2457271.564050926
  9
$TDUPDATE
 40
2457271.230717604
  9
$TDUUPDATE
 40
2457271.564050938
  9
$TDINDWG
 40
0.0000000116
  9
$TDUSRTIMER
 40
0.0000000116
  9
$USRTIMER
 70
     1
  9
$ANGBASE
 50
0.0
  9
$ANGDIR
 70
     0
  9
$PDMODE
 70
     0
  9
$PDSIZE
 40
0.0
  9
$PLINEWID
 40
0.0
  9
$SPLFRAME
 70
     0
  9
$SPLINETYPE
 70
     6
  9
$SPLINESEGS
 70
     8
  9
$HANDSEED
  5
40
  9
$SURFTAB1
 70
     6
  9
$SURFTAB2
 70
     6
  9
$SURFTYPE
 70
     6
  9
$SURFU
 70
     6
  9
$SURFV
 70
     6
  9
$UCSBASE
  2

  9
$UCSNAME
  2

  9
$UCSORG
 10
0.0
 20
0.0
 30
0.0
  9
$UCSXDIR
 10
1.0
 20
0.0
 30
0.0
  9
$UCSYDIR
 10
0.0
 20
1.0
 30
0.0
  9
$UCSORTHOREF
  2

  9
$UCSORTHOVIEW
 70
     0
  9
$UCSORGTOP
 10
0.0
 20
0.0
 30
0.0
  9
$UCSORGBOTTOM
 10
0.0
 20
0.0
 30
0.0
  9
$UCSORGLEFT
 10
0.0
 20
0.0
 30
0.0
  9
$UCSORGRIGHT
 10
0.0
 20
0.0
 30
0.0
  9
$UCSORGFRONT
 10
0.0
 20
0.0
 30
0.0
  9
$UCSORGBACK
 10
0.0
 20
0.0
 30
0.0
  9
$PUCSBASE
  2

  9
$PUCSNAME
  2

  9
$PUCSORG
 10
0.0
 20
0.0
 30
0.0
  9
$PUCSXDIR
 10
1.0
 20
0.0
 30
0.0
  9
$PUCSYDIR
 10
0.0
 20
1.0
 30
0.0
  9
$PUCSORTHOREF
  2

  9
$PUCSORTHOVIEW
 70
     0
  9
$PUCSORGTOP
 10
0.0
 20
0.0
 30
0.0
  9
$PUCSORGBOTTOM
 10
0.0
 20
0.0
 30
0.0
  9
$PUCSORGLEFT
 10
0.0
 20
0.0
 30
0.0
  9
$PUCSORGRIGHT
 10
0.0
 20
0.0
 30
0.0
  9
$PUCSORGFRONT
 10
0.0
 20
0.0
 30
0.0
  9
$PUCSORGBACK
 10
0.0
 20
0.0
 30
0.0
  9
$USERI1
 70
     0
  9
$USERI2
 70
     0
  9
$USERI3
 70
     0
  9
$USERI4
 70
     0
  9
$USERI5
 70
     0
  9
$USERR1
 40
0.0
  9
$USERR2
 40
0.0
  9
$USERR3
 40
0.0
  9
$USERR4
 40
0.0
  9
$USERR5
 40
0.0
  9
$WORLDVIEW
 70
     1
  9
$SHADEDGE
 70
     3
  9
$SHADEDIF
 70
    70
  9
$TILEMODE
 70
     1
  9
$MAXACTVP
 70
    64
  9
$PINSBASE
 10
0.0
 20
0.0
 30
0.0
  9
$PLIMCHECK
 70
     0
  9
$PEXTMIN
 10
1.000000000000000E+20
 20
1.000000000000000E+20
 30
1.000000000000000E+20
  9
$PEXTMAX
 10
-1.000000000000000E+20
 20
-1.000000000000000E+20
 30
-1.000000000000000E+20
  9
$PLIMMIN
 10
0.0
 20
0.0
  9
$PLIMMAX
 10
12.0
 20
9.0
  9
$UNITMODE
 70
     0
  9
$VISRETAIN
 70
     1
  9
$PLINEGEN
 70
     0
  9
$PSLTSCALE
 70
     1
  9
$TREEDEPTH
 70
  3020
  9
$CMLSTYLE
  2
Standard
  9
$CMLJUST
 70
     0
  9
$CMLSCALE
 40
1.0
  9
$PROXYGRAPHICS
 70
     1
  9
$MEASUREMENT
 70
     0
  9
$CELWEIGHT
370
    -1
  9
$ENDCAPS
280
     0
  9
$JOINSTYLE
280
     0
  9
$LWDISPLAY
290
     1
  9
$INSUNITS
 70
     1
  9
$HYPERLINKBASE
  1

  9
$STYLESHEET
  1

  9
$XEDIT
290
     1
  9
$CEPSNTYPE
380
     0
  9
$PSTYLEMODE
290
     1
  9
$FINGERPRINTGUID
  2
{C6338C2F-B4C2-0CDD-84B6-A268273B0411}
  9
$VERSIONGUID
  2
{FAEB1C32-E019-11D5-929B-00C0DF256EC4}
  9
$EXTNAMES
290
     1
  9
$PSVPSCALE
 40
0.0
  9
$OLESTARTUP
290
     0
  9
$SORTENTS
280
   127
  9
$INDEXCTL
280
     0
  9
$HIDETEXT
280
     1
  9
$XCLIPFRAME
290
     0
  9
$HALOGAP
280
     0
  9
$OBSCOLOR
 70
   257
  9
$OBSLTYPE
280
     0
  9
$INTERSECTIONDISPLAY
280
     0
  9
$INTERSECTIONCOLOR
 70
   257
  9
$DIMASSOC
280
     2
  9
$PROJECTNAME
  1

  0
ENDSEC
  0
SECTION
  2
CLASSES
  0
CLASS
  1
ACDBDICTIONARYWDFLT
  2
AcDbDictionaryWithDefault
  3
ObjectDBX Classes
 90
        0
 91
        3
280
     0
281
     0
  0
CLASS
  1
VISUALSTYLE
  2
AcDbVisualStyle
  3
ObjectDBX Classes
 90
     4095
 91
        3
280
     0
281
     0
  0
ENDSEC
  0
SECTION
  2
TABLES
  0
TABLE
  2
VPORT
  5
8
330
0
100
AcDbSymbolTable
 70
     1
  0
VPORT
  5
29
330
8
100
AcDbSymbolTableRecord
100
AcDbViewportTableRecord
  2
*Active
 70
     0
 10
0.0
 20
0.0
 11
1.0
 21
1.0
 12
0.0
 22
0.0
 13
0.0
 23
0.0
 14
0.5
 24
0.5
 15
0.5
 25
0.5
 16
0.0
 26
0.0
 36
1.0
 17
3.0
 27
3.0
 37
0.0
 40
6.0
 41
1.0
 42
50.0
 43
0.0
 44
0.0
 50
0.0
 51
0.0
 71
     0
 72
   100
 73
     1
 74
     3
 75
     0
 76
     0
 77
     0
 78
     0
281
     0
 65
     1
110
0.0
120
0.0
130
0.0
111
1.0
121
0.0
131
0.0
112
0.0
122
1.0
132
0.0
 79
     0
146
0.0
  0
ENDTAB
  0
TABLE
  2
LTYPE
  5
5
330
0
100
AcDbSymbolTable
 70
     1
  0
LTYPE
  5
14
330
5
100
AcDbSymbolTableRecord
100
AcDbLinetypeTableRecord
  2
ByBlock
 70
     0
  3

 72
    65
 73
     0
 40
0.0
  0
LTYPE
  5
15
330
5
100
AcDbSymbolTableRecord
100
AcDbLinetypeTableRecord
  2
ByLayer
 70
     0
  3

 72
    65
 73
     0
 40
0.0
  0
LTYPE
  5
16
330
5
100
AcDbSymbolTableRecord
100
AcDbLinetypeTableRecord
  2
Continuous
 70
     0
  3
Solid line
 72
    65
 73
     0
 40
0.0
  0
ENDTAB
  0
TABLE
  2
LAYER
  5
2
330
0
100
AcDbSymbolTable
 70
     2
  0
LAYER
  5
10
330
2
100
AcDbSymbolTableRecord
100
AcDbLayerTableRecord
  2
0
 70
     0
 62
     7
  6
Continuous
370
    -3
390
F
  0
LAYER
  5
3B
330
2
100
AcDbSymbolTableRecord
100
AcDbLayerTableRecord
  2
Layer 1
 70
     0
 62
     7
  6
Continuous
370
    -3
390
F
  0
ENDTAB
  0
TABLE
  2
STYLE
  5
3
330
0
100
AcDbSymbolTable
 70
     1
  0
STYLE
  5
11
330
3
100
AcDbSymbolTableRecord
100
AcDbTextStyleTableRecord
  2
Standard
 70
     0
 40
0.0
 41
1.0
 50
0.0
 71
     0
 42
0.2
  3
txt
  4

  0
ENDTAB
  0
TABLE
  2
VIEW
  5
6
330
0
100
AcDbSymbolTable
 70
     0
  0
ENDTAB
  0
TABLE
  2
UCS
  5
7
330
0
100
AcDbSymbolTable
 70
     0
  0
ENDTAB
  0
TABLE
  2
APPID
  5
9
330
0
100
AcDbSymbolTable
 70
     1
  0
APPID
  5
12
330
9
100
AcDbSymbolTableRecord
100
AcDbRegAppTableRecord
  2
ACAD
 70
     0
  0
ENDTAB
  0
TABLE
  2
DIMSTYLE
  5
A
330
0
100
AcDbSymbolTable
 70
     1
100
AcDbDimStyleTable
  0
DIMSTYLE
105
27
330
A
100
AcDbSymbolTableRecord
100
AcDbDimStyleTableRecord
  2
Standard
 70
     0
340
11
  0
ENDTAB
  0
TABLE
  2
BLOCK_RECORD
  5
1
330
0
100
AcDbSymbolTable
 70
     1
  0
BLOCK_RECORD
  5
1F
330
1
100
AcDbSymbolTableRecord
100
AcDbBlockTableRecord
  2
*Model_Space
340
22
  0
BLOCK_RECORD
  5
1B
330
1
100
AcDbSymbolTableRecord
100
AcDbBlockTableRecord
  2
*Paper_Space
340
1E
  0
BLOCK_RECORD
  5
23
330
1
100
AcDbSymbolTableRecord
100
AcDbBlockTableRecord
  2
*Paper_Space0
340
26
  0
ENDTAB
  0
ENDSEC
  0
SECTION
  2
BLOCKS
  0
BLOCK
  5
20
330
1F
100
AcDbEntity
  8
0
100
AcDbBlockBegin
  2
*Model_Space
 70
     0
 71
     0
 10
0.0
 20
0.0
 30
0.0
  3
*Model_Space
  1

  0
ENDBLK
  5
21
330
1F
100
AcDbEntity
  8
0
100
AcDbBlockEnd
  0
BLOCK
  5
1C
330
1B
100
AcDbEntity
 67
     1
  8
0
100
AcDbBlockBegin
  2
*Paper_Space
 70
     0
 71
     0
 10
0.0
 20
0.0
 30
0.0
  3
*Paper_Space
  1

  0
ENDBLK
  5
1D
330
1B
100
AcDbEntity
 67
     1
  8
0
100
AcDbBlockEnd
  0
BLOCK
  5
24
330
23
100
AcDbEntity
  8
0
100
AcDbBlockBegin
  2
*Paper_Space0
 70
     0
 71
     0
 10
0.0
 20
0.0
 30
0.0
  3
*Paper_Space0
  1

  0
ENDBLK
  5
25
330
23
100
AcDbEntity
  8
0
100
AcDbBlockEnd
  0
ENDSEC
  0
SECTION
  2
ENTITIES
  0
SPLINE
  5
3C
330
1F
100
AcDbEntity
  8
Layer 1
370
     0
100
AcDbSpline
210
0.0
220
0.0
230
1.0
 70
    11
 71
     3
 72
   179
 73
   175
 74
     0
 42
0.0000000001
 43
0.0000000001
 40
0.0
 40
0.0
 40
0.0
 40
0.0
 40
1.0
 40
1.0
 40
1.0
 40
2.0
 40
2.0
 40
2.0
 40
3.0
 40
3.0
 40
3.0
 40
4.0
 40
4.0
 40
4.0
 40
5.0
 40
5.0
 40
5.0
 40
6.0
 40
6.0
 40
6.0
 40
7.0
 40
7.0
 40
7.0
 40
8.0
 40
8.0
 40
8.0
 40
9.0
 40
9.0
 40
9.0
 40
10.0
 40
10.0
 40
10.0
 40
11.0
 40
11.0
 40
11.0
 40
12.0
 40
12.0
 40
12.0
 40
13.0
 40
13.0
 40
13.0
 40
14.0
 40
14.0
 40
14.0
 40
15.0
 40
15.0
 40
15.0
 40
16.0
 40
16.0
 40
16.0
 40
17.0
 40
17.0
 40
17.0
 40
18.0
 40
18.0
 40
18.0
 40
19.0
 40
19.0
 40
19.0
 40
20.0
 40
20.0
 40
20.0
 40
21.0
 40
21.0
 40
21.0
 40
22.0
 40
22.0
 40
22.0
 40
23.0
 40
23.0
 40
23.0
 40
24.0
 40
24.0
 40
24.0
 40
25.0
 40
25.0
 40
25.0
 40
26.0
 40
26.0
 40
26.0
 40
27.0
 40
27.0
 40
27.0
 40
28.0
 40
28.0
 40
28.0
 40
29.0
 40
29.0
 40
29.0
 40
30.0
 40
30.0
 40
30.0
 40
31.0
 40
31.0
 40
31.0
 40
32.0
 40
32.0
 40
32.0
 40
33.0
 40
33.0
 40
33.0
 40
34.0
 40
34.0
 40
34.0
 40
35.0
 40
35.0
 40
35.0
 40
36.0
 40
36.0
 40
36.0
 40
37.0
 40
37.0
 40
37.0
 40
38.0
 40
38.0
 40
38.0
 40
39.0
 40
39.0
 40
39.0
 40
40.0
 40
40.0
 40
40.0
 40
41.0
 40
41.0
 40
41.0
 40
42.0
 40
42.0
 40
42.0
 40
43.0
 40
43.0
 40
43.0
 40
44.0
 40
44.0
 40
44.0
 40
45.0
 40
45.0
 40
45.0
 40
46.0
 40
46.0
 40
46.0
 40
47.0
 40
47.0
 40
47.0
 40
48.0
 40
48.0
 40
48.0
 40
49.0
 40
49.0
 40
49.0
 40
50.0
 40
50.0
 40
50.0
 40
51.0
 40
51.0
 40
51.0
 40
52.0
 40
52.0
 40
52.0
 40
53.0
 40
53.0
 40
53.0
 40
54.0
 40
54.0
 40
54.0
 40
55.0
 40
55.0
 40
55.0
 40
56.0
 40
56.0
 40
56.0
 40
57.0
 40
57.0
 40
57.0
 40
58.0
 40
58.0
 40
58.0
 40
58.0
 10
3.100029839409722
 20
3.369791666666667
 30
0.0
 10
3.094780815972222
 20
3.275811089409722
 30
0.0
 10
3.089518229166667
 20
3.181803385416667
 30
0.0
 10
3.084269205729167
 20
3.087816026475694
 30
0.0
 10
3.084364149305555
 20
3.087863498263889
 30
0.0
 10
3.084459092881944
 20
3.087910970052083
 30
0.0
 10
3.084554036458333
 20
3.087958441840278
 30
0.0
 10
3.116970486111111
 20
3.157660590277778
 30
0.0
 10
3.149400499131944
 20
3.227389865451389
 30
0.0
 10
3.181816948784722
 20
3.297092013888889
 30
0.0
 10
3.171725802951389
 20
3.300347222222222
 30
0.0
 10
3.161593967013889
 20
3.316745334201389
 30
0.0
 10
3.166056315104167
 20
3.331461588541667
 30
0.0
 10
3.170274522569444
 20
3.345357259114583
 30
0.0
 10
3.186360677083333
 20
3.359022352430555
 30
0.0
 10
3.205525716145833
 20
3.351481119791667
 30
0.0
 10
3.213528103298611
 20
3.34832763671875
 30
0.0
 10
3.219577365451389
 20
3.3421630859375
 30
0.0
 10
3.222710503472222
 20
3.334153917100694
 30
0.0
 10
3.228610568576389
 20
3.319091796875
 30
0.0
 10
3.220106336805555
 20
3.304355197482639
 30
0.0
 10
3.210788302951389
 20
3.298516167534722
 30
0.0
 10
3.206895616319444
 20
3.296074761284722
 30
0.0
 10
3.202555338541667
 20
3.294867621527778
 30
0.0
 10
3.197007921006944
 20
3.293972439236111
 30
0.0
 10
3.1947021484375
 20
3.293599446614583
 30
0.0
 10
3.189073350694444
 20
3.294969346788194
 30
0.0
 10
3.1883544921875
 20
3.294399685329861
 30
0.0
 10
3.166395399305555
 20
3.219916449652778
 30
0.0
 10
3.144422743055555
 20
3.145406087239583
 30
0.0
 10
3.122463650173611
 20
3.0709228515625
 30
0.0
 10
3.117730034722222
 20
3.054829915364583
 30
0.0
 10
3.112996419270833
 20
3.038736979166667
 30
0.0
 10
3.108262803819444
 20
3.022650824652778
 30
0.0
 10
3.105712890625
 20
3.014472113715278
 30
0.0
 10
3.104153103298611
 20
3.005466037326389
 30
0.0
 10
3.100165473090278
 20
2.9986572265625
 30
0.0
 10
3.095472547743055
 20
2.990627712673611
 30
0.0
 10
3.0892333984375
 20
2.983683268229167
 30
0.0
 10
3.081990559895833
 20
2.978203667534722
 30
0.0
 10
3.068454318576389
 20
2.967963324652778
 30
0.0
 10
3.052029079861111
 20
2.961181640625
 30
0.0
 10
3.033013237847222
 20
2.956339518229167
 30
0.0
 10
3.027235243055555
 20
2.954874674479167
 30
0.0
 10
3.021525065104167
 20
2.954481336805555
 30
0.0
 10
3.0152587890625
 20
2.953369140625
 30
0.0
 10
3.007500542534722
 20
2.951972113715278
 30
0.0
 10
2.992702907986111
 20
2.95068359375
 30
0.0
 10
2.984015570746528
 20
2.952080620659722
 30
0.0
 10
2.981085883246528
 20
2.952229817708333
 30
0.0
 10
2.9781494140625
 20
2.952365451388889
 30
0.0
 10
2.975212944878472
 20
2.9525146484375
 30
0.0
 10
2.968221028645833
 20
2.953667534722222
 30
0.0
 10
2.961276584201389
 20
2.953870985243055
 30
0.0
 10
2.954766167534722
 20
2.955485026041667
 30
0.0
 10
2.937459309895833
 20
2.959798177083333
 30
0.0
 10
2.922342936197917
 20
2.964857313368055
 30
0.0
 10
2.909186469184028
 20
2.973090277777778
 30
0.0
 10
2.904195149739583
 20
2.976223415798611
 30
0.0
 10
2.89990234375
 20
2.980129665798611
 30
0.0
 10
2.895412868923611
 20
2.983751085069444
 30
0.0
 10
2.889302571614583
 20
2.988661024305555
 30
0.0
 10
2.884019639756944
 20
2.996785481770833
 30
0.0
 10
2.880927191840278
 20
3.004618326822917
 30
0.0
 10
2.879367404513889
 20
3.009914822048611
 30
0.0
 10
2.8778076171875
 20
3.015218098958333
 30
0.0
 10
2.876247829861111
 20
3.020521375868055
 30
0.0
 10
2.87127685546875
 20
3.03741455078125
 30
0.0
 10
2.866305881076389
 20
3.054307725694444
 30
0.0
 10
2.861334906684028
 20
3.071207682291667
 30
0.0
 10
2.839375813802083
 20
3.145785861545139
 30
0.0
 10
2.817409939236111
 20
3.220391167534722
 30
0.0
 10
2.795450846354167
 20
3.294969346788194
 30
0.0
 10
2.795403374565972
 20
3.294969346788194
 30
0.0
 10
2.795355902777778
 20
3.294969346788194
 30
0.0
 10
2.795308430989583
 20
3.294969346788194
 30
0.0
 10
2.7899169921875
 20
3.293212890625
 30
0.0
 10
2.7825927734375
 20
3.294162326388889
 30
0.0
 10
2.777981228298611
 20
3.295817057291667
 30
0.0
 10
2.766594780815972
 20
3.299906412760417
 30
0.0
 10
2.754774305555555
 20
3.313320583767361
 30
0.0
 10
2.75909423828125
 20
3.330457899305555
 30
0.0
 10
2.761644151475694
 20
3.340562608506944
 30
0.0
 10
2.768330891927083
 20
3.347907172309028
 30
0.0
 10
2.777418348524305
 20
3.351481119791667
 30
0.0
 10
2.796142578125
 20
3.35882568359375
 30
0.0
 10
2.812371148003472
 20
3.345703125
 30
0.0
 10
2.816602918836805
 20
3.332166883680555
 30
0.0
 10
2.821322970920139
 20
3.31707763671875
 30
0.0
 10
2.811801486545139
 20
3.301283094618055
 30
0.0
 10
2.80169677734375
 20
3.297376844618055
 30
0.0
 10
2.834255642361111
 20
3.227579752604167
 30
0.0
 10
2.866828070746528
 20
3.157762315538194
 30
0.0
 10
2.899386935763889
 20
3.087958441840278
 30
0.0
 10
2.899434407552083
 20
3.087958441840278
 30
0.0
 10
2.899481879340278
 20
3.087958441840278
 30
0.0
 10
2.899529351128472
 20
3.087958441840278
 30
0.0
 10
2.894327799479167
 20
3.181898328993055
 30
0.0
 10
2.889119466145833
 20
3.275851779513889
 30
0.0
 10
2.8839111328125
 20
3.369791666666667
 30
0.0
 10
2.864644368489583
 20
3.369486490885417
 30
0.0
 10
2.847391764322917
 20
3.388970269097222
 30
0.0
 10
2.855516221788194
 20
3.409688313802083
 30
0.0
 10
2.859354654947917
 20
3.419474283854167
 30
0.0
 10
2.866977267795139
 20
3.426337348090278
 30
0.0
 10
2.87823486328125
 20
3.4287109375
 30
0.0
 10
2.883273654513889
 20
3.429775661892361
 30
0.0
 10
2.889133029513889
 20
3.428799099392361
 30
0.0
 10
2.892998589409722
 20
3.427435980902778
 30
0.0
 10
2.901753743489583
 20
3.424343532986111
 30
0.0
 10
2.907986111111111
 20
3.418443467881944
 30
0.0
 10
2.91131591796875
 20
3.40997314453125
 30
0.0
 10
2.916449652777778
 20
3.396904839409722
 30
0.0
 10
2.910488552517361
 20
3.383110894097222
 30
0.0
 10
2.902798122829861
 20
3.377034505208333
 30
0.0
 10
2.89971923828125
 20
3.374593098958333
 30
0.0
 10
2.896206325954861
 20
3.371738009982639
 30
0.0
 10
2.891581217447917
 20
3.370930989583333
 30
0.0
 10
2.913160536024305
 20
3.279310438368055
 30
0.0
 10
2.934746636284722
 20
3.187669542100694
 30
0.0
 10
2.956332736545139
 20
3.096048990885417
 30
0.0
 10
2.956373426649305
 20
3.096048990885417
 30
0.0
 10
2.9564208984375
 20
3.096048990885417
 30
0.0
 10
2.956468370225694
 20
3.096048990885417
 30
0.0
 10
2.9642333984375
 20
3.171339246961805
 30
0.0
 10
2.971998426649305
 20
3.246649848090278
 30
0.0
 10
2.979756673177083
 20
3.321940104166667
 30
0.0
 10
2.981743706597222
 20
3.341200086805555
 30
0.0
 10
2.983737521701389
 20
3.360466851128472
 30
0.0
 10
2.985724555121528
 20
3.379733615451389
 30
0.0
 10
2.986199273003472
 20
3.384365505642361
 30
0.0
 10
2.986667209201389
 20
3.389004177517361
 30
0.0
 10
2.987141927083333
 20
3.393642849392361
 30
0.0
 10
2.987325032552083
 20
3.394992404513889
 30
0.0
 10
2.987989637586805
 20
3.398206922743055
 30
0.0
 10
2.987284342447917
 20
3.399034288194444
 30
0.0
 10
2.984917534722222
 20
3.399698893229167
 30
0.0
 10
2.982550726996528
 20
3.400363498263889
 30
0.0
 10
2.980183919270833
 20
3.401021321614583
 30
0.0
 10
2.972208658854167
 20
3.404432508680555
 30
0.0
 10
2.965996636284722
 20
3.411098904079861
 30
0.0
 10
2.963290744357639
 20
3.419772677951389
 30
0.0
 10
2.957838270399305
 20
3.43719482421875
 30
0.0
 10
2.969184027777778
 20
3.45123291015625
 30
0.0
 10
2.98089599609375
 20
3.455973307291667
 30
0.0
 10
2.984151204427083
 20
3.457288953993055
 30
0.0
 10
2.989142523871528
 20
3.458943684895833
 30
0.0
 10
2.994235568576389
 20
3.458102756076389
 30
0.0
 10
3.006591796875
 20
3.4560546875
 30
0.0
 10
3.014784071180555
 20
3.450181749131944
 30
0.0
 10
3.019097222222222
 20
3.440212673611111
 30
0.0
 10
3.028021918402778
 20
3.419514973958333
 30
0.0
 10
3.012871636284722
 20
3.402560763888889
 30
0.0
 10
2.99609375
 20
3.399034288194444
 30
0.0
 10
3.006551106770833
 20
3.297817654079861
 30
0.0
 10
3.017008463541667
 20
3.196560329861111
 30
0.0
 10
3.0274658203125
 20
3.095343695746528
 30
0.0
 10
3.049099392361111
 20
3.18719482421875
 30
0.0
 10
3.070732964409722
 20
3.279073079427083
 30
0.0
 10
3.092366536458333
 20
3.370930989583333
 30
0.0
 10
3.082329644097222
 20
3.373440212673611
 30
0.0
 10
3.075005425347222
 20
3.381442599826389
 30
0.0
 10
3.072062174479167
 20
3.391086154513889
 30
0.0
 10
3.065809461805555
 20
3.411505805121528
 30
0.0
 10
3.084242078993055
 20
3.432874891493055
 30
0.0
 10
3.104994032118055
 20
3.428853352864583
 30
0.0
 10
3.116550021701389
 20
3.426615397135417
 30
0.0
 10
3.124538845486111
 20
3.41998291015625
 30
0.0
 10
3.128431532118055
 20
3.410108778211805
 30
0.0
 10
3.136759440104167
 20
3.388963487413194
 30
0.0
 10
3.119818793402778
 20
3.369669596354167
 30
0.0
 10
3.100029839409722
 20
3.369791666666667
 30
0.0
 10
3.100029839409722
 20
3.369791666666667
 30
0.0
 10
3.100029839409722
 20
3.369791666666667
 30
0.0
 10
3.100029839409722
 20
3.369791666666667
 30
0.0
  0
HATCH
  5
3D
330
1F
100
AcDbEntity
  8
Layer 1
 62
   179
420
  2301728
100
AcDbHatch
 10
0.0
 20
0.0
 30
0.0
210
0.0
220
0.0
230
1.0
  2
SOLID
 70
     1
 71
     0
 91
        1
 92
        1
 93
        1
 72
     4
 94
        3
 73
     0
 74
     1
 95
      179
 96
      175
 40
0.0
 40
0.0
 40
0.0
 40
0.0
 40
1.0
 40
1.0
 40
1.0
 40
2.0
 40
2.0
 40
2.0
 40
3.0
 40
3.0
 40
3.0
 40
4.0
 40
4.0
 40
4.0
 40
5.0
 40
5.0
 40
5.0
 40
6.0
 40
6.0
 40
6.0
 40
7.0
 40
7.0
 40
7.0
 40
8.0
 40
8.0
 40
8.0
 40
9.0
 40
9.0
 40
9.0
 40
10.0
 40
10.0
 40
10.0
 40
11.0
 40
11.0
 40
11.0
 40
12.0
 40
12.0
 40
12.0
 40
13.0
 40
13.0
 40
13.0
 40
14.0
 40
14.0
 40
14.0
 40
15.0
 40
15.0
 40
15.0
 40
16.0
 40
16.0
 40
16.0
 40
17.0
 40
17.0
 40
17.0
 40
18.0
 40
18.0
 40
18.0
 40
19.0
 40
19.0
 40
19.0
 40
20.0
 40
20.0
 40
20.0
 40
21.0
 40
21.0
 40
21.0
 40
22.0
 40
22.0
 40
22.0
 40
23.0
 40
23.0
 40
23.0
 40
24.0
 40
24.0
 40
24.0
 40
25.0
 40
25.0
 40
25.0
 40
26.0
 40
26.0
 40
26.0
 40
27.0
 40
27.0
 40
27.0
 40
28.0
 40
28.0
 40
28.0
 40
29.0
 40
29.0
 40
29.0
 40
30.0
 40
30.0
 40
30.0
 40
31.0
 40
31.0
 40
31.0
 40
32.0
 40
32.0
 40
32.0
 40
33.0
 40
33.0
 40
33.0
 40
34.0
 40
34.0
 40
34.0
 40
35.0
 40
35.0
 40
35.0
 40
36.0
 40
36.0
 40
36.0
 40
37.0
 40
37.0
 40
37.0
 40
38.0
 40
38.0
 40
38.0
 40
39.0
 40
39.0
 40
39.0
 40
40.0
 40
40.0
 40
40.0
 40
41.0
 40
41.0
 40
41.0
 40
42.0
 40
42.0
 40
42.0
 40
43.0
 40
43.0
 40
43.0
 40
44.0
 40
44.0
 40
44.0
 40
45.0
 40
45.0
 40
45.0
 40
46.0
 40
46.0
 40
46.0
 40
47.0
 40
47.0
 40
47.0
 40
48.0
 40
48.0
 40
48.0
 40
49.0
 40
49.0
 40
49.0
 40
50.0
 40
50.0
 40
50.0
 40
51.0
 40
51.0
 40
51.0
 40
52.0
 40
52.0
 40
52.0
 40
53.0
 40
53.0
 40
53.0
 40
54.0
 40
54.0
 40
54.0
 40
55.0
 40
55.0
 40
55.0
 40
56.0
 40
56.0
 40
56.0
 40
57.0
 40
57.0
 40
57.0
 40
58.0
 40
58.0
 40
58.0
 40
58.0
 10
3.100029839409722
 20
3.369791666666667
 10
3.094780815972222
 20
3.275811089409722
 10
3.089518229166667
 20
3.181803385416667
 10
3.084269205729167
 20
3.087816026475694
 10
3.084364149305555
 20
3.087863498263889
 10
3.084459092881944
 20
3.087910970052083
 10
3.084554036458333
 20
3.087958441840278
 10
3.116970486111111
 20
3.157660590277778
 10
3.149400499131944
 20
3.227389865451389
 10
3.181816948784722
 20
3.297092013888889
 10
3.171725802951389
 20
3.300347222222222
 10
3.161593967013889
 20
3.316745334201389
 10
3.166056315104167
 20
3.331461588541667
 10
3.170274522569444
 20
3.345357259114583
 10
3.186360677083333
 20
3.359022352430555
 10
3.205525716145833
 20
3.351481119791667
 10
3.213528103298611
 20
3.34832763671875
 10
3.219577365451389
 20
3.3421630859375
 10
3.222710503472222
 20
3.334153917100694
 10
3.228610568576389
 20
3.319091796875
 10
3.220106336805555
 20
3.304355197482639
 10
3.210788302951389
 20
3.298516167534722
 10
3.206895616319444
 20
3.296074761284722
 10
3.202555338541667
 20
3.294867621527778
 10
3.197007921006944
 20
3.293972439236111
 10
3.1947021484375
 20
3.293599446614583
 10
3.189073350694444
 20
3.294969346788194
 10
3.1883544921875
 20
3.294399685329861
 10
3.166395399305555
 20
3.219916449652778
 10
3.144422743055555
 20
3.145406087239583
 10
3.122463650173611
 20
3.0709228515625
 10
3.117730034722222
 20
3.054829915364583
 10
3.112996419270833
 20
3.038736979166667
 10
3.108262803819444
 20
3.022650824652778
 10
3.105712890625
 20
3.014472113715278
 10
3.104153103298611
 20
3.005466037326389
 10
3.100165473090278
 20
2.9986572265625
 10
3.095472547743055
 20
2.990627712673611
 10
3.0892333984375
 20
2.983683268229167
 10
3.081990559895833
 20
2.978203667534722
 10
3.068454318576389
 20
2.967963324652778
 10
3.052029079861111
 20
2.961181640625
 10
3.033013237847222
 20
2.956339518229167
 10
3.027235243055555
 20
2.954874674479167
 10
3.021525065104167
 20
2.954481336805555
 10
3.0152587890625
 20
2.953369140625
 10
3.007500542534722
 20
2.951972113715278
 10
2.992702907986111
 20
2.95068359375
 10
2.984015570746528
 20
2.952080620659722
 10
2.981085883246528
 20
2.952229817708333
 10
2.9781494140625
 20
2.952365451388889
 10
2.975212944878472
 20
2.9525146484375
 10
2.968221028645833
 20
2.953667534722222
 10
2.961276584201389
 20
2.953870985243055
 10
2.954766167534722
 20
2.955485026041667
 10
2.937459309895833
 20
2.959798177083333
 10
2.922342936197917
 20
2.964857313368055
 10
2.909186469184028
 20
2.973090277777778
 10
2.904195149739583
 20
2.976223415798611
 10
2.89990234375
 20
2.980129665798611
 10
2.895412868923611
 20
2.983751085069444
 10
2.889302571614583
 20
2.988661024305555
 10
2.884019639756944
 20
2.996785481770833
 10
2.880927191840278
 20
3.004618326822917
 10
2.879367404513889
 20
3.009914822048611
 10
2.8778076171875
 20
3.015218098958333
 10
2.876247829861111
 20
3.020521375868055
 10
2.87127685546875
 20
3.03741455078125
 10
2.866305881076389
 20
3.054307725694444
 10
2.861334906684028
 20
3.071207682291667
 10
2.839375813802083
 20
3.145785861545139
 10
2.817409939236111
 20
3.220391167534722
 10
2.795450846354167
 20
3.294969346788194
 10
2.795403374565972
 20
3.294969346788194
 10
2.795355902777778
 20
3.294969346788194
 10
2.795308430989583
 20
3.294969346788194
 10
2.7899169921875
 20
3.293212890625
 10
2.7825927734375
 20
3.294162326388889
 10
2.777981228298611
 20
3.295817057291667
 10
2.766594780815972
 20
3.299906412760417
 10
2.754774305555555
 20
3.313320583767361
 10
2.75909423828125
 20
3.330457899305555
 10
2.761644151475694
 20
3.340562608506944
 10
2.768330891927083
 20
3.347907172309028
 10
2.777418348524305
 20
3.351481119791667
 10
2.796142578125
 20
3.35882568359375
 10
2.812371148003472
 20
3.345703125
 10
2.816602918836805
 20
3.332166883680555
 10
2.821322970920139
 20
3.31707763671875
 10
2.811801486545139
 20
3.301283094618055
 10
2.80169677734375
 20
3.297376844618055
 10
2.834255642361111
 20
3.227579752604167
 10
2.866828070746528
 20
3.157762315538194
 10
2.899386935763889
 20
3.087958441840278
 10
2.899434407552083
 20
3.087958441840278
 10
2.899481879340278
 20
3.087958441840278
 10
2.899529351128472
 20
3.087958441840278
 10
2.894327799479167
 20
3.181898328993055
 10
2.889119466145833
 20
3.275851779513889
 10
2.8839111328125
 20
3.369791666666667
 10
2.864644368489583
 20
3.369486490885417
 10
2.847391764322917
 20
3.388970269097222
 10
2.855516221788194
 20
3.409688313802083
 10
2.859354654947917
 20
3.419474283854167
 10
2.866977267795139
 20
3.426337348090278
 10
2.87823486328125
 20
3.4287109375
 10
2.883273654513889
 20
3.429775661892361
 10
2.889133029513889
 20
3.428799099392361
 10
2.892998589409722
 20
3.427435980902778
 10
2.901753743489583
 20
3.424343532986111
 10
2.907986111111111
 20
3.418443467881944
 10
2.91131591796875
 20
3.40997314453125
 10
2.916449652777778
 20
3.396904839409722
 10
2.910488552517361
 20
3.383110894097222
 10
2.902798122829861
 20
3.377034505208333
 10
2.89971923828125
 20
3.374593098958333
 10
2.896206325954861
 20
3.371738009982639
 10
2.891581217447917
 20
3.370930989583333
 10
2.913160536024305
 20
3.279310438368055
 10
2.934746636284722
 20
3.187669542100694
 10
2.956332736545139
 20
3.096048990885417
 10
2.956373426649305
 20
3.096048990885417
 10
2.9564208984375
 20
3.096048990885417
 10
2.956468370225694
 20
3.096048990885417
 10
2.9642333984375
 20
3.171339246961805
 10
2.971998426649305
 20
3.246649848090278
 10
2.979756673177083
 20
3.321940104166667
 10
2.981743706597222
 20
3.341200086805555
 10
2.983737521701389
 20
3.360466851128472
 10
2.985724555121528
 20
3.379733615451389
 10
2.986199273003472
 20
3.384365505642361
 10
2.986667209201389
 20
3.389004177517361
 10
2.987141927083333
 20
3.393642849392361
 10
2.987325032552083
 20
3.394992404513889
 10
2.987989637586805
 20
3.398206922743055
 10
2.987284342447917
 20
3.399034288194444
 10
2.984917534722222
 20
3.399698893229167
 10
2.982550726996528
 20
3.400363498263889
 10
2.980183919270833
 20
3.401021321614583
 10
2.972208658854167
 20
3.404432508680555
 10
2.965996636284722
 20
3.411098904079861
 10
2.963290744357639
 20
3.419772677951389
 10
2.957838270399305
 20
3.43719482421875
 10
2.969184027777778
 20
3.45123291015625
 10
2.98089599609375
 20
3.455973307291667
 10
2.984151204427083
 20
3.457288953993055
 10
2.989142523871528
 20
3.458943684895833
 10
2.994235568576389
 20
3.458102756076389
 10
3.006591796875
 20
3.4560546875
 10
3.014784071180555
 20
3.450181749131944
 10
3.019097222222222
 20
3.440212673611111
 10
3.028021918402778
 20
3.419514973958333
 10
3.012871636284722
 20
3.402560763888889
 10
2.99609375
 20
3.399034288194444
 10
3.006551106770833
 20
3.297817654079861
 10
3.017008463541667
 20
3.196560329861111
 10
3.0274658203125
 20
3.095343695746528
 10
3.049099392361111
 20
3.18719482421875
 10
3.070732964409722
 20
3.279073079427083
 10
3.092366536458333
 20
3.370930989583333
 10
3.082329644097222
 20
3.373440212673611
 10
3.075005425347222
 20
3.381442599826389
 10
3.072062174479167
 20
3.391086154513889
 10
3.065809461805555
 20
3.411505805121528
 10
3.084242078993055
 20
3.432874891493055
 10
3.104994032118055
 20
3.428853352864583
 10
3.116550021701389
 20
3.426615397135417
 10
3.124538845486111
 20
3.41998291015625
 10
3.128431532118055
 20
3.410108778211805
 10
3.136759440104167
 20
3.388963487413194
 10
3.119818793402778
 20
3.369669596354167
 10
3.100029839409722
 20
3.369791666666667
 10
3.100029839409722
 20
3.369791666666667
 10
3.100029839409722
 20
3.369791666666667
 10
3.100029839409722
 20
3.369791666666667
 97
        0
 75
     2
 76
     1
 98
        0
  0
SPLINE
  5
3E
330
1F
100
AcDbEntity
  8
Layer 1
370
     0
100
AcDbSpline
210
0.0
220
0.0
230
1.0
 70
    11
 71
     3
 72
    35
 73
    31
 74
     0
 42
0.0000000001
 43
0.0000000001
 40
0.0
 40
0.0
 40
0.0
 40
0.0
 40
1.0
 40
1.0
 40
1.0
 40
2.0
 40
2.0
 40
2.0
 40
3.0
 40
3.0
 40
3.0
 40
4.0
 40
4.0
 40
4.0
 40
5.0
 40
5.0
 40
5.0
 40
6.0
 40
6.0
 40
6.0
 40
7.0
 40
7.0
 40
7.0
 40
8.0
 40
8.0
 40
8.0
 40
9.0
 40
9.0
 40
9.0
 40
10.0
 40
10.0
 40
10.0
 40
10.0
 10
2.985439724392361
 20
3.032307942708333
 30
0.0
 10
2.982645670572917
 20
3.032206217447917
 30
0.0
 10
2.979851616753472
 20
3.032111273871528
 30
0.0
 10
2.977064344618055
 20
3.032016330295139
 30
0.0
 10
2.971238878038194
 20
3.031548394097222
 30
0.0
 10
2.965420193142361
 20
3.031073676215278
 30
0.0
 10
2.9595947265625
 20
3.030598958333333
 30
0.0
 10
2.941460503472222
 20
3.027472601996528
 30
0.0
 10
2.924167209201389
 20
3.025309244791667
 30
0.0
 10
2.910888671875
 20
3.017537434895833
 30
0.0
 10
2.904995388454861
 20
3.014085557725694
 30
0.0
 10
2.894131130642361
 20
3.00714111328125
 30
0.0
 10
2.900241427951389
 20
2.997382269965278
 30
0.0
 10
2.90576171875
 20
2.988552517361111
 30
0.0
 10
2.9183349609375
 20
2.984809027777778
 30
0.0
 10
2.929348415798611
 20
2.981472439236111
 30
0.0
 10
2.96160888671875
 20
2.971706814236111
 30
0.0
 10
3.013576931423611
 20
2.971327039930555
 30
0.0
 10
3.0474853515625
 20
2.979912651909722
 30
0.0
 10
3.060194227430555
 20
2.983127170138889
 30
0.0
 10
3.080891927083333
 20
2.98876953125
 30
0.0
 10
3.084120008680555
 20
3.000644259982639
 30
0.0
 10
3.086710611979167
 20
3.010152180989583
 30
0.0
 10
3.074273003472222
 20
3.016791449652778
 30
0.0
 10
3.068359375
 20
3.019382052951389
 30
0.0
 10
3.046034071180555
 20
3.029181586371528
 30
0.0
 10
3.017768012152778
 20
3.032240125868055
 30
0.0
 10
2.985439724392361
 20
3.032307942708333
 30
0.0
 10
2.985439724392361
 20
3.032307942708333
 30
0.0
 10
2.985439724392361
 20
3.032307942708333
 30
0.0
 10
2.985439724392361
 20
3.032307942708333
 30
0.0
  0
ENDSEC
  0
SECTION
  2
OBJECTS
  0
DICTIONARY
  5
C
330
0
100
AcDbDictionary
281
     1
  3
ACAD_GROUP
350
D
  3
ACAD_LAYOUT
350
1A
  3
ACAD_MLINESTYLE
350
17
  3
ACAD_PLOTSETTINGS
350
19
  3
ACAD_PLOTSTYLENAME
350
E
  3
ACAD_TABLESTYLE
350
3F
  3
ACAD_VISUALSTYLE
350
2A
  0
DICTIONARY
  5
D
102
{ACAD_REACTORS
330
C
102
}
330
C
100
AcDbDictionary
281
     1
  0
DICTIONARY
  5
1A
102
{ACAD_REACTORS
330
C
102
}
330
C
100
AcDbDictionary
281
     1
  3
Layout1
350
1E
  3
Layout2
350
26
  3
Model
350
22
  0
DICTIONARY
  5
17
102
{ACAD_REACTORS
330
C
102
}
330
C
100
AcDbDictionary
281
     1
  3
Standard
350
18
  0
DICTIONARY
  5
19
102
{ACAD_REACTORS
330
C
102
}
330
C
100
AcDbDictionary
281
     1
  0
ACDBDICTIONARYWDFLT
  5
E
102
{ACAD_REACTORS
330
C
102
}
330
C
100
AcDbDictionary
281
     1
  3
Normal
350
F
100
AcDbDictionaryWithDefault
340
F
  0
DICTIONARY
  5
3F
102
{ACAD_REACTORS
330
C
102
}
330
C
100
AcDbDictionary
281
     1
  0
DICTIONARY
  5
2A
102
{ACAD_REACTORS
330
C
102
}
330
C
100
AcDbDictionary
281
     1
  3
2dWireframe
350
2F
  3
3D Hidden
350
31
  3
3dWireframe
350
30
  3
Basic
350
32
  3
Brighten
350
36
  3
ColorChange
350
3A
  3
Conceptual
350
34
  3
Dim
350
35
  3
Facepattern
350
39
  3
Flat
350
2B
  3
FlatWithEdges
350
2C
  3
Gouraud
350
2D
  3
GouraudWithEdges
350
2E
  3
Linepattern
350
38
  3
Realistic
350
33
  3
Thicken
350
37
  0
LAYOUT
  5
1E
102
{ACAD_REACTORS
330
1A
102
}
330
1A
100
AcDbPlotSettings
  1

  2
none_device
  4

  6

 40
0.0
 41
0.0
 42
0.0
 43
0.0
 44
0.0
 45
0.0
 46
0.0
 47
0.0
 48
0.0
 49
0.0
140
0.0
141
0.0
142
1.0
143
1.0
 70
   688
 72
     0
 73
     0
 74
     5
  7

 75
    16
 76
     0
 77
     2
 78
   300
147
1.0
148
0.0
149
0.0
100
AcDbLayout
  1
Layout1
 70
     1
 71
     1
 10
0.0
 20
0.0
 11
12.0
 21
9.0
 12
0.0
 22
0.0
 32
0.0
 14
1.000000000000000E+20
 24
1.000000000000000E+20
 34
1.000000000000000E+20
 15
-1.000000000000000E+20
 25
-1.000000000000000E+20
 35
-1.000000000000000E+20
146
0.0
 13
0.0
 23
0.0
 33
0.0
 16
1.0
 26
0.0
 36
0.0
 17
0.0
 27
1.0
 37
0.0
 76
     0
330
1B
  0
LAYOUT
  5
26
102
{ACAD_REACTORS
330
1A
102
}
330
1A
100
AcDbPlotSettings
  1

  2
none_device
  4

  6

 40
0.0
 41
0.0
 42
0.0
 43
0.0
 44
0.0
 45
0.0
 46
0.0
 47
0.0
 48
0.0
 49
0.0
140
0.0
141
0.0
142
1.0
143
1.0
 70
   688
 72
     0
 73
     0
 74
     5
  7

 75
    16
 76
     0
 77
     2
 78
   300
147
1.0
148
0.0
149
0.0
100
AcDbLayout
  1
Layout2
 70
     1
 71
     2
 10
0.0
 20
0.0
 11
0.0
 21
0.0
 12
0.0
 22
0.0
 32
0.0
 14
0.0
 24
0.0
 34
0.0
 15
0.0
 25
0.0
 35
0.0
146
0.0
 13
0.0
 23
0.0
 33
0.0
 16
1.0
 26
0.0
 36
0.0
 17
0.0
 27
1.0
 37
0.0
 76
     0
330
23
  0
LAYOUT
  5
22
102
{ACAD_REACTORS
330
1A
102
}
330
1A
100
AcDbPlotSettings
  1

  2
none_device
  4

  6

 40
0.0
 41
0.0
 42
0.0
 43
0.0
 44
0.0
 45
0.0
 46
0.0
 47
0.0
 48
0.0
 49
0.0
140
0.0
141
0.0
142
1.0
143
1.0
 70
  1712
 72
     0
 73
     0
 74
     0
  7

 75
     0
 76
     0
 77
     2
 78
   300
147
1.0
148
0.0
149
0.0
100
AcDbLayout
  1
Model
 70
     1
 71
     0
 10
0.0
 20
0.0
 11
12.0
 21
9.0
 12
0.0
 22
0.0
 32
0.0
 14
1.000000000000000E+20
 24
1.000000000000000E+20
 34
1.000000000000000E+20
 15
-1.000000000000000E+20
 25
-1.000000000000000E+20
 35
-1.000000000000000E+20
146
0.0
 13
0.0
 23
0.0
 33
0.0
 16
1.0
 26
0.0
 36
0.0
 17
0.0
 27
1.0
 37
0.0
 76
     0
330
1F
331
29
  0
MLINESTYLE
  5
18
102
{ACAD_REACTORS
330
17
102
}
330
17
100
AcDbMlineStyle
  2
Standard
 70
     0
  3

 62
   256
 51
90.0
 52
90.0
 71
     2
 49
0.5
 62
   256
  6
BYLAYER
 49
-0.5
 62
   256
  6
BYLAYER
  0
ACDBPLACEHOLDER
  5
F
102
{ACAD_REACTORS
330
E
102
}
330
E
  0
VISUALSTYLE
  5
2F
102
{ACAD_REACTORS
330
2A
102
}
330
2A
100
AcDbVisualStyle
  2
2dWireframe
 70
     4
 71
     0
 72
     2
 73
     0
 90
        0
 40
-0.6
 41
-30.0
 62
     5
 63
     7
421
 16777215
 74
     1
 91
        4
 64
     7
 65
   257
 75
     1
175
     1
 42
1.0
 92
        0
 66
   257
 43
1.0
 76
     1
 77
     6
 78
     2
 67
     7
 79
     5
170
     0
171
     0
290
     0
174
     0
 93
        1
 44
0.0
173
     0
291
     0
 45
0.0
1001
ACAD
1000
AcDbSavedByObjectVersion
1070
     0
  0
VISUALSTYLE
  5
31
102
{ACAD_REACTORS
330
2A
102
}
330
2A
100
AcDbVisualStyle
  2
3D Hidden
 70
     6
 71
     1
 72
     2
 73
     2
 90
        0
 40
-0.6
 41
-30.0
 62
     5
 63
     7
421
 16777215
 74
     2
 91
        2
 64
     7
 65
   257
 75
     2
175
     1
 42
40.0
 92
        0
 66
   257
 43
1.0
 76
     1
 77
     6
 78
     2
 67
     7
 79
     3
170
     0
171
     0
290
     0
174
     0
 93
        1
 44
0.0
173
     0
291
     0
 45
0.0
1001
ACAD
1000
AcDbSavedByObjectVersion
1070
     0
  0
VISUALSTYLE
  5
30
102
{ACAD_REACTORS
330
2A
102
}
330
2A
100
AcDbVisualStyle
  2
3dWireframe
 70
     5
 71
     0
 72
     2
 73
     0
 90
        0
 40
-0.6
 41
-30.0
 62
     5
 63
     7
421
 16777215
 74
     1
 91
        4
 64
     7
 65
   257
 75
     1
175
     1
 42
1.0
 92
        0
 66
   257
 43
1.0
 76
     1
 77
     6
 78
     2
 67
     7
 79
     5
170
     0
171
     0
290
     0
174
     0
 93
        1
 44
0.0
173
     0
291
     0
 45
0.0
1001
ACAD
1000
AcDbSavedByObjectVersion
1070
     0
  0
VISUALSTYLE
  5
32
102
{ACAD_REACTORS
330
2A
102
}
330
2A
100
AcDbVisualStyle
  2
Basic
 70
     7
 71
     1
 72
     0
 73
     1
 90
        0
 40
-0.6
 41
-30.0
 62
     5
 63
     7
421
 16777215
 74
     0
 91
        4
 64
     7
 65
   257
 75
     1
175
     1
 42
1.0
 92
        8
 66
     7
 43
1.0
 76
     1
 77
     6
 78
     2
 67
     7
 79
     5
170
     0
171
     0
290
     0
174
     0
 93
        1
 44
0.0
173
     0
291
     1
 45
0.0
1001
ACAD
1000
AcDbSavedByObjectVersion
1070
     0
  0
VISUALSTYLE
  5
36
102
{ACAD_REACTORS
330
2A
102
}
330
2A
100
AcDbVisualStyle
  2
Brighten
 70
    12
 71
     2
 72
     2
 73
     0
 90
        0
 40
-0.6
 41
-30.0
 62
     5
 63
     7
421
 16777215
 74
     1
 91
        4
 64
     7
 65
   257
 75
     1
175
     1
 42
1.0
 92
        8
 66
     7
 43
1.0
 76
     1
 77
     6
 78
     2
 67
     7
 79
     5
170
     0
171
     0
290
     0
174
     0
 93
        1
 44
50.0
173
     0
291
     1
 45
0.0
1001
ACAD
1000
AcDbSavedByObjectVersion
1070
     0
  0
VISUALSTYLE
  5
3A
102
{ACAD_REACTORS
330
2A
102
}
330
2A
100
AcDbVisualStyle
  2
ColorChange
 70
    16
 71
     2
 72
     2
 73
     3
 90
        0
 40
-0.6
 41
-30.0
 62
     5
 63
     8
421
  8421504
 74
     1
 91
        4
 64
     7
 65
   257
 75
     1
175
     1
 42
1.0
 92
        8
 66
     8
424
  8421504
 43
1.0
 76
     1
 77
     6
 78
     2
 67
     7
 79
     5
170
     0
171
     0
290
     0
174
     0
 93
        1
 44
0.0
173
     0
291
     1
 45
0.0
1001
ACAD
1000
AcDbSavedByObjectVersion
1070
     0
  0
VISUALSTYLE
  5
34
102
{ACAD_REACTORS
330
2A
102
}
330
2A
100
AcDbVisualStyle
  2
Conceptual
 70
     9
 71
     3
 72
     2
 73
     0
 90
        0
 40
-0.6
 41
-30.0
 62
     5
 63
     7
421
 16777215
 74
     2
 91
        2
 64
     7
 65
   257
 75
     1
175
     1
 42
40.0
 92
        8
 66
     7
 43
1.0
 76
     1
 77
     6
 78
     2
 67
     7
 79
     3
170
     0
171
     0
290
     0
174
     0
 93
        1
 44
0.0
173
     0
291
     0
 45
0.0
1001
ACAD
1000
AcDbSavedByObjectVersion
1070
     0
  0
VISUALSTYLE
  5
35
102
{ACAD_REACTORS
330
2A
102
}
330
2A
100
AcDbVisualStyle
  2
Dim
 70
    11
 71
     2
 72
     2
 73
     0
 90
        0
 40
-0.6
 41
-30.0
 62
     5
 63
     7
421
 16777215
 74
     1
 91
        4
 64
     7
 65
   257
 75
     1
175
     1
 42
1.0
 92
        8
 66
     7
 43
1.0
 76
     1
 77
     6
 78
     2
 67
     7
 79
     5
170
     0
171
     0
290
     0
174
     0
 93
        1
 44
-50.0
173
     0
291
     1
 45
0.0
1001
ACAD
1000
AcDbSavedByObjectVersion
1070
     0
  0
VISUALSTYLE
  5
39
102
{ACAD_REACTORS
330
2A
102
}
330
2A
100
AcDbVisualStyle
  2
Facepattern
 70
    15
 71
     2
 72
     2
 73
     0
 90
        0
 40
-0.6
 41
-30.0
 62
     5
 63
     7
421
 16777215
 74
     1
 91
        4
 64
     7
 65
   257
 75
     1
175
     1
 42
1.0
 92
        8
 66
     7
 43
1.0
 76
     1
 77
     6
 78
     2
 67
     7
 79
     5
170
     0
171
     0
290
     0
174
     0
 93
        1
 44
0.0
173
     0
291
     1
 45
0.0
1001
ACAD
1000
AcDbSavedByObjectVersion
1070
     0
  0
VISUALSTYLE
  5
2B
102
{ACAD_REACTORS
330
2A
102
}
330
2A
100
AcDbVisualStyle
  2
Flat
 70
     0
 71
     2
 72
     1
 73
     1
 90
        2
 40
-0.6
 41
30.0
 62
     5
 63
     7
421
 16777215
 74
     0
 91
        4
 64
     7
 65
   257
 75
     1
175
     1
 42
1.0
 92
        8
 66
     7
 43
1.0
 76
     1
 77
     6
 78
     2
 67
     7
 79
     5
170
     0
171
     0
290
     0
174
     0
 93
       13
 44
0.0
173
     0
291
     1
 45
0.0
1001
ACAD
1000
AcDbSavedByObjectVersion
1070
     0
  0
VISUALSTYLE
  5
2C
102
{ACAD_REACTORS
330
2A
102
}
330
2A
100
AcDbVisualStyle
  2
FlatWithEdges
 70
     1
 71
     2
 72
     1
 73
     1
 90
        2
 40
-0.6
 41
30.0
 62
     5
 63
     7
421
 16777215
 74
     1
 91
        4
 64
     7
 65
   257
 75
     1
175
     1
 42
1.0
 92
        0
 66
   257
 43
1.0
 76
     1
 77
     6
 78
     2
 67
     7
 79
     5
170
     0
171
     0
290
     0
174
     0
 93
       13
 44
0.0
173
     0
291
     1
 45
0.0
1001
ACAD
1000
AcDbSavedByObjectVersion
1070
     0
  0
VISUALSTYLE
  5
2D
102
{ACAD_REACTORS
330
2A
102
}
330
2A
100
AcDbVisualStyle
  2
Gouraud
 70
     2
 71
     2
 72
     2
 73
     1
 90
        2
 40
-0.6
 41
30.0
 62
     5
 63
     7
421
 16777215
 74
     0
 91
        4
 64
     7
 65
   257
 75
     1
175
     1
 42
1.0
 92
        0
 66
     7
 43
1.0
 76
     1
 77
     6
 78
     2
 67
     7
 79
     5
170
     0
171
     0
290
     0
174
     0
 93
       13
 44
0.0
173
     0
291
     1
 45
0.0
1001
ACAD
1000
AcDbSavedByObjectVersion
1070
     0
  0
VISUALSTYLE
  5
2E
102
{ACAD_REACTORS
330
2A
102
}
330
2A
100
AcDbVisualStyle
  2
GouraudWithEdges
 70
     3
 71
     2
 72
     2
 73
     1
 90
        2
 40
-0.6
 41
30.0
 62
     5
 63
     7
421
 16777215
 74
     1
 91
        4
 64
     7
 65
   257
 75
     1
175
     1
 42
1.0
 92
        0
 66
   257
 43
1.0
 76
     1
 77
     6
 78
     2
 67
     7
 79
     5
170
     0
171
     0
290
     0
174
     0
 93
       13
 44
0.0
173
     0
291
     1
 45
0.0
1001
ACAD
1000
AcDbSavedByObjectVersion
1070
     0
  0
VISUALSTYLE
  5
38
102
{ACAD_REACTORS
330
2A
102
}
330
2A
100
AcDbVisualStyle
  2
Linepattern
 70
    14
 71
     2
 72
     2
 73
     0
 90
        0
 40
-0.6
 41
-30.0
 62
     5
 63
     7
421
 16777215
 74
     1
 91
        4
 64
     7
 65
   257
 75
     7
175
     7
 42
1.0
 92
        8
 66
     7
 43
1.0
 76
     1
 77
     6
 78
     2
 67
     7
 79
     5
170
     0
171
     0
290
     0
174
     0
 93
        1
 44
0.0
173
     0
291
     1
 45
0.0
1001
ACAD
1000
AcDbSavedByObjectVersion
1070
     0
  0
VISUALSTYLE
  5
33
102
{ACAD_REACTORS
330
2A
102
}
330
2A
100
AcDbVisualStyle
  2
Realistic
 70
     8
 71
     2
 72
     2
 73
     0
 90
        0
 40
-0.6
 41
-30.0
 62
     5
 63
     7
421
 16777215
 74
     1
 91
        0
 64
     7
 65
   257
 75
     1
175
     1
 42
1.0
 92
        8
 66
     8
424
  7895160
 43
1.0
 76
     1
 77
     6
 78
     2
 67
     7
 79
     5
170
     0
171
     0
290
     0
174
     0
 93
       13
 44
0.0
173
     0
291
     0
 45
0.0
1001
ACAD
1000
AcDbSavedByObjectVersion
1070
     0
  0
VISUALSTYLE
  5
37
102
{ACAD_REACTORS
330
2A
102
}
330
2A
100
AcDbVisualStyle
  2
Thicken
 70
    13
 71
     2
 72
     2
 73
     0
 90
        0
 40
-0.6
 41
-30.0
 62
     5
 63
     7
421
 16777215
 74
     1
 91
        4
 64
     7
 65
   257
 75
     1
175
     1
 42
1.0
 92
       12
 66
     7
 43
1.0
 76
     1
 77
     6
 78
     2
 67
     7
 79
     5
170
     0
171
     0
290
     0
174
     0
 93
        1
 44
0.0
173
     0
291
     1
 45
0.0
1001
ACAD
1000
AcDbSavedByObjectVersion
1070
     0
  0
ENDSEC
  0
EOF
